# xmcd
#
# Track frame offsets:
#	150
#	9187
#	25602
#	38529
#	52522
#	71684
#	85170
#	95692
#	106672
#	118534
#	143327
#	159557
#
# Disc length: 2275 seconds
#
# Revision: 0
# Processed by: cddbd v1.4PL0 Copyright (c) Steve Scherf et al.
# Submitted via: dBpowerAMP V4.0
#
DISCID=7a08e10c
DTITLE=Ray Charles - My Soul
DYEAR=1900
DGENRE=
TTITLE0=Hit the road Jack
TTITLE1=Georgia on my mind
TTITLE2=Unchain my heart
TTITLE3=Kiss me baby
TTITLE4=I Cant't stop loving you
TTITLE5=You are my sunshine
TTITLE6=I wonder who's kissingher now
TTITLE7=A sentimental blues
TTITLE8=Baby, don't you cry
TTITLE9=Ol'man river
TTITLE10=Without love
TTITLE11=I chose to sing the blues
EXTD=My soul
EXTT0=
EXTT1=
EXTT2=
EXTT3=
EXTT4=
EXTT5=
EXTT6=
EXTT7=
EXTT8=
EXTT9=
EXTT10=
EXTT11=
PLAYORDER=
